<mxfile host="app.diagrams.net" modified="2024-06-13T22:14:38.544Z" agent="Mozilla/5.0 (Windows NT 10.0; Win64; x64) AppleWebKit/537.36 (KHTML, like Gecko) Chrome/125.0.0.0 Safari/537.36" version="24.4.14" etag="-bR90N6GC4XOH9rmbYqb" type="github">
  <diagram name="PÃ¡gina-1" id="KN-7Ntw3eemW49qnZTDz">
    <mxGraphModel>
      <root>
        <mxCell id="0" />
        <mxCell id="1" parent="0" />
      </root>
    </mxGraphModel>
  </diagram>
</mxfile>
